# xmcd
#
# Track frame offsets:
#	150
#	22692
#	36115
#	58095
#	76582
#	96267
#	115170
#	131155
#	151375
#	168032
#	184930
#	197717
#	214662
#	234452
#	247032
#	261877
#	285947
#	301535
#	314737
#
# Disc length: 4425 seconds
#
# Revision: 0
# Processed by: cddbd v1.5.2PL0 Copyright (c) Steve Scherf et al.
# Submitted via: audiograbber 1.83.01
#
DISCID=f7114713
DTITLE=Sampler Blues - The Alligator Records - 25th anniversary collection CD2
DYEAR=1995
DGENRE=Blues
TTITLE0=Taylor, Koko - Evil
TTITLE1=Brooks, Lonnie - Got lucky last night
TTITLE2=Steady Rollin' Bob Margolin - Blues lover
TTITLE3=Little Charlie and The Nightcats - I could deal with it
TTITLE4=Allison, Luther - Cherry red wine
TTITLE5=Webster, Katie - Hard lovin' mama
TTITLE6=Bishop, Elvin - She puts me in the mood
TTITLE7=Bell, Carey - Low down dirty shame
TTITLE8=Peterson, Lucky - Six o'clock blues
TTITLE9=Hole, Dave - Keep your motor running
TTITLE10=Harris, Corey - Roots woman
TTITLE11=Michael Hill's Blues Mob - Can't recall a time
TTITLE12=Buchanan, Roy and Delbert McClinton - Baby, baby, baby
TTITLE13=Buchanan, Roy - Jack The Ripper
TTITLE14=Williamson, Sonny Boy - The sky is crying
TTITLE15=Winter, Johnny - Love, life and money
TTITLE16=Taylor, Hound Dog - Look on Yonder's wall
TTITLE17=Robinson, Fenton - Somebody loan me a dime
TTITLE18=Brown, Clearence 'Gatemouth' - We're outta here
EXTD=
EXTT0=
EXTT1=
EXTT2=
EXTT3=
EXTT4=
EXTT5=
EXTT6=
EXTT7=
EXTT8=
EXTT9=
EXTT10=
EXTT11=
EXTT12=
EXTT13=
EXTT14=
EXTT15=
EXTT16=
EXTT17=
EXTT18=
PLAYORDER=
